<svg width="50" height="51" viewBox="0 0 50 51" fill="none" xmlns="http://www.w3.org/2000/svg">
<path fill-rule="evenodd" clip-rule="evenodd" d="M39.6461 33.7758V4.92727C39.6461 3.78538 40.56 2.86182 41.7058 2.86182C42.8438 2.86182 43.7674 3.76604 43.7674 4.92727V46.1355C43.7674 47.2773 42.8535 48.2009 41.7058 48.2009C40.5677 48.2009 39.6461 47.2967 39.6461 46.1355V37.897H8.73206C7.59402 37.897 6.67046 36.9831 6.67046 35.8354C6.67046 34.6974 7.60753 33.7757 8.73206 33.7757H19.0361C23.5882 33.7757 27.2805 30.0834 27.2805 25.5313C27.2805 20.9792 23.5882 17.2869 19.0361 17.2869C14.484 17.2869 10.7917 20.9792 10.7917 25.5313C10.7917 26.6693 9.87004 27.5929 8.73201 27.5929C7.59397 27.5929 6.67041 26.6693 6.67041 25.5313C6.67041 18.701 12.2058 13.1657 19.036 13.1657C25.8663 13.1657 31.4017 18.701 31.4017 25.5313C31.4017 28.6981 30.2115 31.5865 28.2523 33.7757L39.6461 33.7758Z" fill="#252525"/>
</svg>
