<svg width="50" height="50" viewBox="0 0 50 50" fill="none" xmlns="http://www.w3.org/2000/svg">
<path d="M4.6099 11.4271C4.6099 9.51402 5.36987 7.6793 6.72262 6.32655C8.07537 4.97379 9.9101 4.21383 11.8232 4.21383C13.7363 4.21383 15.571 4.97379 16.9237 6.32655C18.2765 7.6793 19.0365 9.51402 19.0365 11.4271C19.0308 12.0248 18.9547 12.6197 18.8098 13.1995C18.7217 13.5429 18.6115 13.8802 18.48 14.2094C18.48 14.2094 18.377 14.4155 18.3151 14.5391L18.006 15.1368L17.7587 15.4871L17.4083 15.9818L17.1198 16.3115L16.687 16.7443L16.3572 17.0122C16.2085 17.1473 16.0501 17.2713 15.8832 17.3832L15.5123 17.6099C15.3409 17.725 15.1619 17.8283 14.9764 17.9191L14.6054 18.0839L13.9459 18.3106L13.6162 18.4137L13.5131 18.4137C11.7142 20.8765 10.7599 23.855 10.7927 26.9047C10.7927 30.7309 12.3126 34.4003 15.0181 37.1059C17.7237 39.8114 21.3931 41.3313 25.2193 41.3313C29.0454 41.3313 32.7149 39.8114 35.4204 37.1059C38.1259 34.4003 39.6458 30.7309 39.6458 26.9047C39.6697 23.8691 38.7159 20.9064 36.9254 18.4549L36.5956 18.3519L35.9361 18.1251L35.5239 17.9191L34.9675 17.6099L34.6171 17.3832C34.429 17.2739 34.2498 17.1498 34.0813 17.0122L33.7515 16.7443L33.3187 16.3115L33.0302 15.9818L32.6592 15.4871C32.591 15.3658 32.5153 15.2488 32.4325 15.1368C32.3141 14.9459 32.2108 14.7461 32.1234 14.5391C32.0605 14.4405 32.0054 14.3372 31.9585 14.23C31.827 13.9008 31.7169 13.5635 31.6288 13.2201C31.4822 12.6336 31.4061 12.0317 31.4021 11.4271C31.3992 10.1259 31.7483 8.84823 32.4124 7.72932C33.0765 6.61041 34.0309 5.69197 35.1745 5.0713C36.3181 4.45063 37.6083 4.15085 38.9084 4.20371C40.2085 4.25657 41.47 4.66011 42.5595 5.37157C43.6489 6.08303 44.5256 7.07592 45.0967 8.24506C45.6678 9.41419 45.912 10.716 45.8035 12.0127C45.695 13.3093 45.2377 14.5524 44.4802 15.6104C43.7227 16.6683 42.6932 17.5016 41.5007 18.0221C42.8547 20.5031 43.6239 23.2607 43.7494 26.0844C43.8749 28.908 43.3535 31.723 42.2249 34.3144C41.0963 36.9057 39.3904 39.2049 37.2375 41.0362C35.0847 42.8676 32.5417 44.1827 29.8029 44.8812C27.0642 45.5797 24.202 45.643 21.435 45.0663C18.668 44.4897 16.0694 43.2883 13.8376 41.554C11.6058 39.8196 9.79995 37.5981 8.55786 35.0592C7.31577 32.5204 6.67033 29.7312 6.67084 26.9047C6.66866 23.807 7.44842 20.7589 8.93787 18.0427C7.6492 17.4832 6.55262 16.5585 5.78349 15.3828C5.01437 14.2072 4.60638 12.832 4.6099 11.4271ZM38.6154 8.35631C37.799 8.35629 37.0158 8.67916 36.4367 9.25446C35.8575 9.82976 35.5294 10.6108 35.5239 11.4271C35.4965 11.6874 35.4965 11.9499 35.5239 12.2103C35.6642 12.8115 35.9836 13.3559 36.4399 13.7718C36.8962 14.1876 37.4679 14.4552 38.0795 14.5391L38.6153 14.5391C39.4352 14.5391 40.2216 14.2134 40.8013 13.6337C41.3811 13.0539 41.7068 12.2676 41.7068 11.4477C41.7068 10.6278 41.3811 9.84151 40.8013 9.26176C40.2216 8.68201 39.4352 8.35631 38.6154 8.35631ZM11.8232 8.35631C11.0033 8.35631 10.217 8.68201 9.63723 9.26176C9.05748 9.84151 8.73177 10.6278 8.73177 11.4477C8.73177 12.2676 9.05748 13.0539 9.63723 13.6337C10.217 14.2134 11.0033 14.5391 11.8232 14.5391L12.1735 14.5391C12.4105 14.5103 12.6406 14.4406 12.8536 14.333L13.1422 14.333C13.342 14.2407 13.529 14.1229 13.6986 13.9827C13.7814 13.947 13.8579 13.8983 13.9253 13.8384C14.098 13.6792 14.2503 13.4992 14.3787 13.3026L14.5024 13.1583C14.6676 12.8894 14.7926 12.5978 14.8734 12.2927C14.9207 12.0067 14.9345 11.7163 14.9146 11.4271C14.9091 10.6108 14.581 9.82976 14.0019 9.25446C13.4227 8.67916 12.6395 8.35629 11.8232 8.35631Z" fill="#252525"/>
</svg>
