<svg width="50" height="50" viewBox="0 0 50 50" fill="none" xmlns="http://www.w3.org/2000/svg">
<path d="M45.6635 5.73676C45.4543 5.23318 45.0542 4.83299 44.5506 4.62386C44.3028 4.51825 44.0367 4.46224 43.7674 4.45898H33.4627C32.9161 4.45898 32.3919 4.67612 32.0054 5.06262C31.6189 5.44912 31.4018 5.97333 31.4018 6.51992C31.4018 7.06652 31.6189 7.59072 32.0054 7.97722C32.3919 8.36372 32.9161 8.58086 33.4627 8.58086H38.8006L31.1957 16.1857C28.3155 13.9249 24.7587 12.6982 21.0971 12.7027C17.8362 12.7027 14.6485 13.6697 11.9372 15.4814C9.2258 17.293 7.11256 19.868 5.86466 22.8807C4.61676 25.8934 4.29026 29.2085 4.92643 32.4068C5.5626 35.605 7.13288 38.5428 9.4387 40.8486C11.7445 43.1545 14.6823 44.7247 17.8806 45.3609C21.0788 45.9971 24.3939 45.6706 27.4066 44.4227C30.4193 43.1748 32.9943 41.0615 34.806 38.3502C36.6176 35.6388 37.5846 32.4511 37.5846 29.1902C37.5892 25.5286 36.3624 21.9719 34.1016 19.0916L41.7065 11.4868V16.8246C41.7065 17.3712 41.9236 17.8954 42.3101 18.2819C42.6966 18.6684 43.2208 18.8855 43.7674 18.8855C44.314 18.8855 44.8382 18.6684 45.2247 18.2819C45.6112 17.8954 45.8284 17.3712 45.8284 16.8246V6.51992C45.8251 6.2506 45.7691 5.98454 45.6635 5.73676ZM21.0971 41.5558C18.6514 41.5558 16.2607 40.8306 14.2271 39.4719C12.1936 38.1131 10.6087 36.1819 9.67278 33.9223C8.73685 31.6628 8.49197 29.1765 8.9691 26.7778C9.44623 24.3791 10.6239 22.1758 12.3533 20.4464C14.0827 18.717 16.286 17.5393 18.6847 17.0622C21.0834 16.5851 23.5697 16.83 25.8292 17.7659C28.0888 18.7018 30.02 20.2867 31.3788 22.3203C32.7375 24.3538 33.4627 26.7445 33.4627 29.1902C33.4627 32.4698 32.1599 35.615 29.8409 37.934C27.5219 40.253 24.3767 41.5558 21.0971 41.5558Z" fill="#252525"/>
</svg>
