<svg width="50" height="50" viewBox="0 0 50 50" fill="none" xmlns="http://www.w3.org/2000/svg">
<path d="M39.6454 18.9613C39.634 15.9055 38.6525 12.9323 36.8425 10.4702L39.1096 7.97648C39.3101 7.77976 39.4683 7.54412 39.5745 7.28403C39.6806 7.02394 39.7325 6.7449 39.7268 6.46404C39.7212 6.18318 39.6582 5.90644 39.5418 5.6508C39.4253 5.39517 39.2578 5.16605 39.0496 4.9775C38.8413 4.78896 38.5967 4.64498 38.3308 4.5544C38.0649 4.46383 37.7833 4.42857 37.5033 4.4508C37.2232 4.47302 36.9507 4.55226 36.7024 4.68365C36.4541 4.81504 36.2353 4.9958 36.0594 5.21483L33.9985 7.52308C31.498 5.58451 28.424 4.53244 25.2601 4.53244C22.0962 4.53244 19.0221 5.58451 16.5217 7.52308L14.4608 5.21483C14.0946 4.79942 13.5783 4.5465 13.0256 4.51171C12.4729 4.47693 11.929 4.66313 11.5136 5.02935C11.0982 5.39556 10.8453 5.9118 10.8105 6.4645C10.7757 7.0172 10.9619 7.56107 11.3282 7.97648L13.5746 10.4702C12.1356 12.4781 11.2363 14.8217 10.9628 17.2768C10.6894 19.7318 11.0508 22.2159 12.0127 24.4912C12.9745 26.7665 14.5044 28.7567 16.4559 30.2711C18.4074 31.7856 20.7151 32.7736 23.1579 33.1405V35.4488H21.097C20.5504 35.4488 20.0262 35.6659 19.6397 36.0524C19.2532 36.4389 19.0361 36.9631 19.0361 37.5097C19.0361 38.0563 19.2532 38.5805 19.6397 38.967C20.0262 39.3535 20.5504 39.5706 21.097 39.5706H23.1579V43.6925C23.1579 44.2391 23.3751 44.7633 23.7616 45.1498C24.1481 45.5363 24.6723 45.7535 25.2189 45.7535C25.7655 45.7535 26.2897 45.5363 26.6762 45.1498C27.0627 44.7633 27.2798 44.2391 27.2798 43.6925V39.5706H29.3407C29.8873 39.5706 30.4115 39.3535 30.798 38.967C31.1845 38.5805 31.4017 38.0563 31.4017 37.5097C31.4017 36.9631 31.1845 36.4389 30.798 36.0524C30.4115 35.6659 29.8873 35.4488 29.3407 35.4488H27.2798V33.223C30.7104 32.7278 33.8481 31.014 36.1188 28.3952C38.3895 25.7763 39.6414 22.4275 39.6454 18.9613ZM14.9142 18.9613C14.9142 16.9232 15.5185 14.9309 16.6508 13.2363C17.7831 11.5417 19.3925 10.2209 21.2754 9.44099C23.1584 8.66105 25.2303 8.45699 27.2292 8.8546C29.2281 9.2522 31.0642 10.2336 32.5054 11.6748C33.9465 13.1159 34.9279 14.952 35.3256 16.9509C35.7232 18.9498 35.5191 21.0218 34.7392 22.9047C33.9592 24.7876 32.6384 26.397 30.9438 27.5293C29.2492 28.6616 27.2569 29.266 25.2189 29.266C22.4859 29.266 19.8649 28.1803 17.9324 26.2478C15.9999 24.3153 14.9142 21.6942 14.9142 18.9613Z" fill="#252525"/>
</svg>
