<svg width="50" height="51" viewBox="0 0 50 51" fill="none" xmlns="http://www.w3.org/2000/svg">
<g clip-path="url(#clip0_6202_55)">
<path d="M38.8403 10.2424C39.218 10.5701 39.4636 11.0241 39.5314 11.5196C39.5992 12.0151 39.4845 12.5183 39.2087 12.9355C38.948 13.3516 38.5472 13.6609 38.0787 13.8078C37.6101 13.9546 37.1045 13.9294 36.653 13.7365C34.7434 12.9441 32.6534 12.689 30.6093 12.9989C28.5652 13.3088 26.6447 14.1718 25.0558 15.4947C23.4669 16.8175 22.27 18.5497 21.5948 20.5038C20.9195 22.4579 20.7915 24.5594 21.2247 26.581C21.6579 28.6026 22.6358 30.4672 24.0525 31.973C25.4691 33.4789 27.2707 34.5686 29.2621 35.1242C31.2535 35.6798 33.359 35.6801 35.3506 35.1252C37.3422 34.5703 39.1442 33.4813 40.5614 31.976C40.8583 31.5171 41.3254 31.1949 41.8598 31.0804C42.3943 30.9659 42.9524 31.0683 43.4113 31.3653C43.8702 31.6622 44.1923 32.1293 44.3068 32.6637C44.4214 33.1982 44.3189 33.7563 44.022 34.2152C43.5872 35.1379 43.0854 36.0274 42.5207 36.8768C40.3063 40.299 37.1268 42.9877 33.3844 44.6029C29.6419 46.2181 25.5045 46.6873 21.4954 45.9511C17.4863 45.2149 13.7855 43.3064 10.8611 40.4669C7.93661 37.6275 5.91984 33.9846 5.06578 29.9989C4.21172 26.0132 4.55872 21.8638 6.06291 18.0754C7.5671 14.2869 10.1609 11.0296 13.5164 8.71527C16.8718 6.40097 20.8382 5.13365 24.9139 5.07356C28.9896 5.01347 32.9916 6.16332 36.4138 8.3777C37.2671 8.93906 38.0781 9.56229 38.8403 10.2424ZM11.3753 16.7238C9.31797 19.8947 8.41267 23.6763 8.81101 27.4351C9.20934 31.194 10.8871 34.7018 13.5633 37.3711C16.2396 40.0404 19.7517 41.7091 23.5116 42.0977C27.2714 42.4864 31.0506 41.5713 34.2162 39.5058C30.3706 40.0007 26.4794 39.0322 23.3144 36.7925C20.1494 34.5527 17.9418 31.2052 17.1293 27.4139C16.3169 23.6226 16.9591 19.6644 18.9284 16.3244C20.8978 12.9844 24.0505 10.5066 27.7612 9.38228C24.6126 8.89161 21.3893 9.32389 18.4812 10.6268C15.5732 11.9297 13.105 14.0475 11.3753 16.7238Z" fill="#252525"/>
</g>
<defs>
<clipPath id="clip0_6202_55">
<rect width="49.4625" height="49.4625" fill="white" transform="matrix(-1 0 0 1 49.95 0.950195)"/>
</clipPath>
</defs>
</svg>
