<svg width="50" height="50" viewBox="0 0 50 50" fill="none" xmlns="http://www.w3.org/2000/svg">
<path d="M45.3405 38.1471C45.3405 40.0602 44.5806 41.8949 43.2278 43.2477C41.8751 44.6004 40.0403 45.3604 38.1273 45.3604C36.2142 45.3604 34.3795 44.6004 33.0267 43.2477C31.674 41.8949 30.914 40.0602 30.914 38.1471C30.9196 37.5495 30.9957 36.9546 31.1407 36.3747C31.2288 36.0314 31.3389 35.694 31.4704 35.3649C31.4704 35.3649 31.5735 35.1588 31.6353 35.0351L31.9445 34.4374L32.1918 34.0871L32.5421 33.5924L32.8307 33.2627L33.2635 32.8299L33.5932 32.562C33.742 32.4269 33.9004 32.3029 34.0672 32.191L34.4382 31.9643C34.6096 31.8492 34.7886 31.7459 34.974 31.6552L35.345 31.4903L36.0045 31.2636L36.3342 31.1605L36.4373 31.1605C38.2362 28.6977 39.1905 25.7192 39.1577 22.6695C39.1577 18.8433 37.6378 15.1739 34.9323 12.4684C32.2268 9.76287 28.5573 8.24293 24.7312 8.24293C20.905 8.24293 17.2356 9.76286 14.5301 12.4684C11.8246 15.1739 10.3046 18.8433 10.3046 22.6695C10.2807 25.7051 11.2346 28.6678 13.0251 31.1193L13.3548 31.2224L14.0143 31.4491L14.4265 31.6552L14.9829 31.9643L15.3333 32.191C15.5214 32.3003 15.7006 32.4244 15.8692 32.562L16.1989 32.8299L16.6317 33.2627L16.9202 33.5924L17.2912 34.0871C17.3594 34.2084 17.4351 34.3255 17.5179 34.4374C17.6363 34.6283 17.7397 34.8282 17.827 35.0351C17.89 35.1337 17.9451 35.2371 17.9919 35.3442C18.1234 35.6734 18.2336 36.0107 18.3217 36.3541C18.4682 36.9406 18.5443 37.5426 18.5484 38.1471C18.5513 39.4483 18.2022 40.726 17.538 41.8449C16.8739 42.9638 15.9195 43.8823 14.7759 44.5029C13.6323 45.1236 12.3421 45.4234 11.0421 45.3705C9.74197 45.3176 8.48039 44.9141 7.39097 44.2027C6.30154 43.4912 5.42484 42.4983 4.85375 41.3292C4.28266 40.16 4.03844 38.8582 4.14696 37.5616C4.25549 36.2649 4.71271 35.0218 5.47021 33.9639C6.2277 32.9059 7.25725 32.0726 8.44978 31.5521C7.09572 29.0711 6.32656 26.3135 6.20105 23.4898C6.07553 20.6662 6.59698 17.8512 7.72557 15.2599C8.85415 12.6685 10.56 10.3694 12.7129 8.53799C14.8658 6.70662 17.4087 5.39148 20.1475 4.69301C22.8863 3.99454 25.7485 3.93122 28.5155 4.50787C31.2824 5.08453 33.8811 6.28591 36.1128 8.02027C38.3446 9.75462 40.1505 11.9761 41.3926 14.515C42.6347 17.0539 43.2801 19.843 43.2796 22.6695C43.2818 25.7672 42.502 28.8154 41.0126 31.5315C42.3012 32.091 43.3978 33.0157 44.1669 34.1914C44.9361 35.3671 45.3441 36.7422 45.3405 38.1471ZM11.3351 41.2179C12.1514 41.2179 12.9346 40.8951 13.5138 40.3198C14.093 39.7445 14.4211 38.9634 14.4265 38.1471C14.454 37.8868 14.454 37.6243 14.4265 37.364C14.2862 36.7628 13.9669 36.2183 13.5106 35.8025C13.0543 35.3866 12.4825 35.1191 11.8709 35.0351L11.3351 35.0351C10.5152 35.0351 9.72889 35.3608 9.14914 35.9405C8.56938 36.5203 8.24368 37.3066 8.24368 38.1265C8.24368 38.9464 8.56938 39.7327 9.14914 40.3125C9.72889 40.8922 10.5152 41.2179 11.3351 41.2179ZM38.1273 41.2179C38.9472 41.2179 39.7335 40.8922 40.3132 40.3125C40.893 39.7327 41.2187 38.9464 41.2187 38.1265C41.2187 37.3066 40.893 36.5203 40.3132 35.9406C39.7335 35.3608 38.9472 35.0351 38.1273 35.0351L37.7769 35.0351C37.54 35.0639 37.3099 35.1336 37.0968 35.2412L36.8083 35.2412C36.6085 35.3335 36.4214 35.4513 36.2518 35.5916C36.169 35.6272 36.0925 35.6759 36.0251 35.7358C35.8524 35.895 35.7001 36.075 35.5717 36.2717L35.448 36.4159C35.2828 36.6848 35.1579 36.9764 35.0771 37.2815C35.0298 37.5675 35.0159 37.858 35.0359 38.1471C35.0413 38.9634 35.3694 39.7445 35.9486 40.3198C36.5277 40.8951 37.3109 41.2179 38.1273 41.2179Z" fill="#252525"/>
</svg>
