<svg width="50" height="50" viewBox="0 0 50 50" fill="none" xmlns="http://www.w3.org/2000/svg">
<path d="M37.5844 31.1765C37.0378 31.1765 36.5136 31.3936 36.1271 31.7801C35.7406 32.1666 35.5235 32.6908 35.5235 33.2374C35.5235 35.7105 35.1113 41.4811 31.4016 41.4811C28.4339 41.4811 27.2797 40.327 27.2797 37.3593C27.7162 34.9362 28.5372 32.5984 29.7116 30.4345C31.7726 25.6944 34.0396 20.7893 31.8962 17.4506C31.1122 16.4578 30.0866 15.6827 28.9176 15.1992C27.7485 14.7157 26.4751 14.54 25.2188 14.689C24.0131 14.6805 22.8229 14.9605 21.7474 15.5054C20.6719 16.0503 19.7423 16.8444 19.036 17.8216V14.689H21.0969C21.6435 14.689 22.1677 14.4718 22.5542 14.0853C22.9407 13.6988 23.1579 13.1746 23.1579 12.628C23.1579 12.0814 22.9407 11.5572 22.5542 11.1707C22.1677 10.7842 21.6435 10.5671 21.0969 10.5671H19.036V6.44521C19.036 5.89862 18.8188 5.37441 18.4323 4.98791C18.0458 4.60141 17.5216 4.38428 16.975 4.38428C16.4285 4.38428 15.9042 4.60141 15.5177 4.98791C15.1312 5.37441 14.9141 5.89862 14.9141 6.44521V10.5671H12.8532C12.3066 10.5671 11.7824 10.7842 11.3959 11.1707C11.0094 11.5572 10.7922 12.0814 10.7922 12.628C10.7922 13.1746 11.0094 13.6988 11.3959 14.0853C11.7824 14.4718 12.3066 14.689 12.8532 14.689H14.9141V33.2374C14.9141 33.784 15.1312 34.3082 15.5177 34.6947C15.9042 35.0812 16.4285 35.2983 16.975 35.2983C17.5216 35.2983 18.0458 35.0812 18.4323 34.6947C18.8188 34.3082 19.036 33.784 19.036 33.2374C19.036 29.4865 20.1901 18.8108 25.2188 18.8108C26.9088 18.8108 28.0629 19.12 28.4339 19.6764C29.3613 21.1397 27.3003 25.715 25.9401 28.7445C24.4808 31.4163 23.537 34.3386 23.1579 37.3593C23.0413 38.4705 23.1743 39.5937 23.5474 40.6469C23.9205 41.7001 24.5241 42.6567 25.3141 43.4467C26.1042 44.2368 27.0608 44.8404 28.114 45.2135C29.1672 45.5865 30.2904 45.7196 31.4016 45.603C36.5539 45.603 39.6453 40.9865 39.6453 33.2374C39.6453 32.6908 39.4282 32.1666 39.0417 31.7801C38.6552 31.3936 38.131 31.1765 37.5844 31.1765Z" fill="#252525"/>
</svg>
