<svg width="50" height="50" viewBox="0 0 50 50" fill="none" xmlns="http://www.w3.org/2000/svg">
<path d="M25.219 4.60938C21.1428 4.60937 17.1582 5.81809 13.769 8.08268C10.3799 10.3473 7.7383 13.566 6.17842 17.3319C4.61855 21.0977 4.21041 25.2416 5.00563 29.2394C5.80085 33.2373 7.7637 36.9095 10.646 39.7918C13.5282 42.674 17.2005 44.6369 21.1983 45.4321C25.1961 46.2273 29.34 45.8192 33.1059 44.2593C36.8717 42.6994 40.0905 40.0579 42.355 36.6687C44.6196 33.2795 45.8284 29.2949 45.8284 25.2187C45.8284 22.5123 45.2953 19.8323 44.2596 17.3319C43.2238 14.8314 41.7058 12.5595 39.792 10.6457C37.8783 8.73196 35.6063 7.21389 33.1059 6.17817C30.6054 5.14245 27.9255 4.60938 25.219 4.60938ZM25.219 41.7062C21.9581 41.7062 18.7704 40.7393 16.059 38.9276C13.3477 37.1159 11.2344 34.5409 9.98654 31.5282C8.73864 28.5155 8.41213 25.2005 9.0483 22.0022C9.68448 18.8039 11.2548 15.8661 13.5606 13.5603C15.8664 11.2545 18.8042 9.68422 22.0024 9.04805C25.2007 8.41188 28.5158 8.73838 31.5285 9.98628C34.5412 11.2342 37.1162 13.3474 38.9278 16.0588C40.7395 18.7701 41.7065 21.9578 41.7065 25.2187C41.7065 29.5915 39.9694 33.7852 36.8774 36.8772C33.7854 39.9692 29.5917 41.7062 25.219 41.7062Z" fill="#252525"/>
<path d="M25.2188 29.3404C27.4952 29.3404 29.3407 27.495 29.3407 25.2186C29.3407 22.9421 27.4952 21.0967 25.2188 21.0967C22.9423 21.0967 21.0969 22.9421 21.0969 25.2186C21.0969 27.495 22.9423 29.3404 25.2188 29.3404Z" fill="#252525"/>
</svg>
