<svg width="50" height="51" viewBox="0 0 50 51" fill="none" xmlns="http://www.w3.org/2000/svg">
<path d="M39.6453 19.423C39.6486 16.6569 38.8566 13.9483 37.3637 11.6198C35.8708 9.2912 33.74 7.4409 31.2251 6.2893C28.7102 5.1377 25.9173 4.73335 23.1791 5.12442C20.4408 5.5155 17.8728 6.68551 15.7808 8.49507C13.6888 10.3046 12.1611 12.6774 11.3798 15.3308C10.5984 17.9842 10.5963 20.8062 11.3738 23.4607C12.1512 26.1153 13.6753 28.4903 15.7646 30.303C17.8539 32.1157 20.4202 33.2895 23.1578 33.6846V35.9105H21.0969C20.5503 35.9105 20.0261 36.1276 19.6396 36.5141C19.2531 36.9006 19.036 37.4248 19.036 37.9714C19.036 38.518 19.2531 39.0422 19.6396 39.4287C20.0261 39.8152 20.5503 40.0323 21.0969 40.0323H23.1578V44.1542C23.1578 44.7008 23.375 45.225 23.7615 45.6115C24.148 45.998 24.6722 46.2151 25.2188 46.2151C25.7654 46.2151 26.2896 45.998 26.6761 45.6115C27.0626 45.225 27.2797 44.7008 27.2797 44.1542V40.0323H29.3407C29.8872 40.0323 30.4115 39.8152 30.798 39.4287C31.1845 39.0422 31.4016 38.518 31.4016 37.9714C31.4016 37.4248 31.1845 36.9006 30.798 36.5141C30.4115 36.1276 29.8872 35.9105 29.3407 35.9105H27.2797V33.6846C30.7103 33.1895 33.848 31.4757 36.1187 28.8568C38.3894 26.238 39.6413 22.8891 39.6453 19.423ZM14.9141 19.423C14.9141 17.3849 15.5185 15.3926 16.6508 13.698C17.783 12.0034 19.3924 10.6826 21.2754 9.90268C23.1583 9.12274 25.2302 8.91867 27.2291 9.31628C29.228 9.71389 31.0642 10.6953 32.5053 12.1364C33.9464 13.5776 34.9279 15.4137 35.3255 17.4126C35.7231 19.4115 35.519 21.4835 34.7391 23.3664C33.9591 25.2493 32.6384 26.8587 30.9438 27.991C29.2492 29.1233 27.2569 29.7276 25.2188 29.7276C22.4858 29.7276 19.8648 28.642 17.9323 26.7095C15.9998 24.777 14.9141 22.1559 14.9141 19.423Z" fill="#252525"/>
</svg>
