<svg width="58" height="58" viewBox="0 0 58 58" fill="none" xmlns="http://www.w3.org/2000/svg">
<path d="M3.47873 25.0067C3.18556 24.7132 3.02089 24.3152 3.02089 23.9003C3.02089 23.4854 3.18556 23.0875 3.47873 22.7939L10.8624 15.4097C10.8843 15.3785 10.9134 15.3531 10.9473 15.3355C10.9811 15.318 11.0186 15.3088 11.0567 15.3088C11.0948 15.3088 11.1324 15.318 11.1662 15.3355C11.2001 15.3531 11.2292 15.3785 11.2511 15.4097L19.3676 23.5262C19.5472 23.6958 19.7848 23.7903 20.0318 23.7903C20.2788 23.7903 20.5164 23.6958 20.6959 23.5262L28.802 15.4085C28.824 15.3776 28.8531 15.3524 28.8868 15.335C28.9205 15.3176 28.9579 15.3085 28.9958 15.3085C29.0338 15.3085 29.0711 15.3176 29.1048 15.335C29.1386 15.3524 29.1676 15.3776 29.1896 15.4085L37.3073 23.5262C37.4868 23.6958 37.7245 23.7903 37.9714 23.7903C38.2184 23.7903 38.4561 23.6958 38.6356 23.5262L46.7411 15.4097C46.7622 15.3775 46.791 15.3511 46.8248 15.3328C46.8586 15.3145 46.8964 15.3048 46.9349 15.3047C46.9733 15.3046 47.0112 15.314 47.0451 15.3321C47.0791 15.3502 47.108 15.3764 47.1293 15.4084L54.5214 22.8012C54.6667 22.9465 54.7819 23.119 54.8605 23.3088C54.9392 23.4987 54.9796 23.7021 54.9796 23.9076C54.9796 24.1131 54.9392 24.3166 54.8605 24.5064C54.7819 24.6962 54.6666 24.8687 54.5213 25.014C54.376 25.1593 54.2036 25.2745 54.0137 25.3532C53.8239 25.4318 53.6204 25.4723 53.4149 25.4723C53.2095 25.4723 53.006 25.4318 52.8162 25.3532C52.6263 25.2745 52.4538 25.1593 52.3086 25.014L47.6012 20.3072C47.4251 20.1312 47.1863 20.0322 46.9372 20.0322H46.9367C46.6877 20.0322 46.4489 20.1312 46.2728 20.3072L38.1594 28.4323C38.1098 28.4814 38.0429 28.5089 37.9732 28.5089C37.9035 28.5089 37.8367 28.4814 37.7871 28.4323L29.6614 20.3072C29.4853 20.1312 29.2466 20.0323 28.9976 20.0322H28.997C28.748 20.0322 28.5093 20.1312 28.3332 20.3072L20.2197 28.4323C20.1702 28.4813 20.1033 28.5088 20.0336 28.5088C19.9639 28.5088 19.897 28.4813 19.8474 28.4323L11.7205 20.306C11.6334 20.2188 11.5299 20.1496 11.416 20.1024C11.3021 20.0552 11.18 20.0309 11.0567 20.0309C10.9334 20.0309 10.8113 20.0552 10.6974 20.1024C10.5835 20.1496 10.48 20.2188 10.3929 20.306L5.69155 25.0067C5.39745 25.2989 4.99971 25.4629 4.58514 25.4629C4.17058 25.4629 3.77284 25.2989 3.47873 25.0067ZM47.106 29.5791C47.0839 29.5564 47.0575 29.5385 47.0283 29.5263C46.9991 29.5142 46.9678 29.508 46.9361 29.5082C46.9042 29.5079 46.8726 29.514 46.843 29.5262C46.8135 29.5384 46.7868 29.5563 46.7644 29.5791L38.6356 37.7201C38.4595 37.8961 38.2208 37.995 37.9718 37.9951H37.9711C37.7221 37.995 37.4834 37.8961 37.3073 37.7201L29.1664 29.5791C29.1443 29.5564 29.1178 29.5385 29.0886 29.5263C29.0594 29.5142 29.0281 29.508 28.9965 29.5082C28.9645 29.5079 28.9329 29.514 28.9033 29.5262C28.8738 29.5384 28.847 29.5563 28.8246 29.5791L20.6959 37.72C20.5198 37.8961 20.281 37.995 20.032 37.9951H20.0314C19.7825 37.995 19.5437 37.8961 19.3676 37.72L11.2273 29.5791C11.1791 29.5399 11.1188 29.5185 11.0567 29.5185C10.9946 29.5185 10.9344 29.5399 10.8862 29.5791L3.47873 36.9865C3.18514 37.28 3.02013 37.678 3.02002 38.0931C3.01991 38.5082 3.1847 38.9063 3.47813 39.1999C3.77157 39.4935 4.16962 39.6585 4.58472 39.6586C4.99982 39.6588 5.39796 39.494 5.69155 39.2005L10.3929 34.4998C10.48 34.4126 10.5835 34.3434 10.6974 34.2963C10.8113 34.2491 10.9334 34.2248 11.0567 34.2248C11.18 34.2248 11.3021 34.2491 11.416 34.2963C11.5299 34.3434 11.6334 34.4126 11.7205 34.4998L19.8353 42.6139C19.8881 42.666 19.9593 42.6951 20.0335 42.6949C20.1077 42.6946 20.1788 42.6651 20.2313 42.6127L28.3332 34.501C28.4204 34.4138 28.5239 34.3446 28.6379 34.2974C28.7518 34.2502 28.874 34.2259 28.9973 34.2259C29.1206 34.2259 29.2428 34.2502 29.3567 34.2974C29.4707 34.3446 29.5742 34.4138 29.6614 34.501L37.7743 42.6138C37.8273 42.666 37.8986 42.6951 37.9729 42.6949C38.0472 42.6946 38.1184 42.6651 38.171 42.6126L46.2729 34.501C46.449 34.325 46.6877 34.226 46.9367 34.2259H46.9373C47.1863 34.226 47.4251 34.325 47.6012 34.501L52.3086 39.2079C52.6022 39.5013 53.0003 39.6661 53.4154 39.666C53.8306 39.6658 54.2286 39.5008 54.522 39.2072C54.8155 38.9136 54.9803 38.5155 54.9802 38.1004C54.98 37.6853 54.815 37.2872 54.5214 36.9938L47.106 29.5791Z" fill="#252525"/>
</svg>
