<svg width="58" height="58" viewBox="0 0 58 58" fill="none" xmlns="http://www.w3.org/2000/svg">
<path d="M15.5495 11.0208C22.1032 11.0208 27.4348 18.1736 27.4348 26.9654V48.5443C27.436 48.9587 27.6014 49.3556 27.8948 49.6482C28.1881 49.9408 28.5856 50.1051 28.9999 50.1051C29.4142 50.1051 29.8116 49.9408 30.105 49.6482C30.3984 49.3556 30.5638 48.9587 30.5649 48.5443V26.9654C30.5649 18.1736 35.8966 11.0208 42.4503 11.0208C44.4466 11.0801 46.386 11.7001 48.0465 12.8099C49.707 13.9197 51.0216 15.4744 51.84 17.2963C51.941 17.5746 52.1158 17.8202 52.3458 18.0066C52.5758 18.1931 52.8522 18.3134 53.1454 18.3546C53.4386 18.3958 53.7374 18.3564 54.0099 18.2406C54.2824 18.1248 54.5182 17.937 54.692 17.6973C54.8304 17.5032 54.922 17.2796 54.9598 17.0442C54.9975 16.8088 54.9804 16.5678 54.9096 16.3401C53.2155 10.852 47.2255 7.89062 42.4503 7.89062C37.3473 7.89062 32.6319 11.1736 29.8368 16.6721C29.7498 16.8162 29.627 16.9354 29.4804 17.0182C29.3338 17.1009 29.1683 17.1444 28.9999 17.1444C28.8315 17.1444 28.666 17.1009 28.5194 17.0182C28.3728 16.9354 28.25 16.8162 28.163 16.6721C25.3678 11.1736 20.6525 7.89062 15.5495 7.89062C10.7742 7.89062 4.78421 10.852 3.09076 16.3401C3.02105 16.5696 3.00482 16.8121 3.0433 17.0488C3.08178 17.2856 3.17396 17.5104 3.31276 17.706C3.45156 17.9017 3.63331 18.0629 3.84407 18.1774C4.05483 18.292 4.28901 18.3567 4.52867 18.3668C4.88101 18.3954 5.23283 18.3056 5.52832 18.1116C5.8238 17.9175 6.04604 17.6304 6.15977 17.2957C6.9783 15.474 8.29299 13.9194 9.95349 12.8097C11.614 11.7001 13.5533 11.0801 15.5495 11.0208Z" fill="#252525"/>
</svg>
