<svg width="58" height="58" viewBox="0 0 58 58" fill="none" xmlns="http://www.w3.org/2000/svg">
<path d="M12.9367 34.5387C15.5641 34.5341 18.0823 33.4876 19.9389 31.6286C21.7956 29.7697 22.839 27.2502 22.8403 24.6229C22.846 22.9602 22.4295 21.3233 21.6298 19.8656C20.8302 18.4079 19.6735 17.1771 18.2682 16.2886C18.1156 16.1919 17.9942 16.0532 17.9185 15.8892C17.8428 15.7252 17.816 15.5428 17.8414 15.364C17.8668 15.1852 17.9432 15.0174 18.0615 14.881C18.1798 14.7445 18.335 14.645 18.5084 14.5946C23.5746 13.1704 28.8512 12.6457 34.0986 13.0443C40.5755 13.5754 46.8812 15.3938 52.6464 18.3928C52.9157 18.5436 53.2234 18.6115 53.5311 18.5882C53.8388 18.5648 54.1328 18.4512 54.3762 18.2615C54.6196 18.0718 54.8016 17.8145 54.8994 17.5218C54.9972 17.2292 55.0065 16.9142 54.9261 16.6162C54.8751 16.4164 54.783 16.2294 54.6556 16.0672C54.5282 15.905 54.3684 15.7711 54.1864 15.6742C48.0535 12.3673 41.2874 10.4026 34.3371 9.91054C33.2355 9.85612 32.1534 9.82881 31.0909 9.82861C21.5847 9.82861 13.6619 12.0135 7.50452 16.3393C6.25114 17.174 5.20072 18.2788 4.43045 19.5728C3.66018 20.8667 3.18963 22.3168 3.0534 23.8165C3.0314 24.0861 3.0206 24.3549 3.02101 24.6228C3.02391 27.2518 4.06953 29.7722 5.92846 31.6311C7.78739 33.4901 10.3078 34.5357 12.9367 34.5387ZM9.13975 19.0145C10.2574 18.2489 11.582 17.8424 12.9367 17.8493C14.5645 17.8475 16.1387 18.4302 17.3729 19.4914C18.6072 20.5526 19.4194 22.0217 19.6617 23.6312C19.904 25.2408 19.5603 26.8839 18.6932 28.2614C17.8261 29.639 16.4932 30.6593 14.9371 31.1369C13.381 31.6144 11.7052 31.5173 10.2146 30.8633C8.7241 30.2093 7.51793 29.0418 6.81567 27.5734C6.11341 26.105 5.96175 24.4332 6.3883 22.8624C6.81484 21.2915 7.79123 19.9261 9.13975 19.0145ZM45.0635 23.4613C42.4362 23.4659 39.918 24.5124 38.0613 26.3713C36.2047 28.2303 35.1612 30.7498 35.1599 33.3771C35.1541 35.0398 35.5705 36.6767 36.3702 38.1345C37.1699 39.5922 38.3267 40.823 39.7321 41.7114C39.8846 41.8081 40.006 41.9468 40.0817 42.1108C40.1574 42.2748 40.1842 42.4572 40.1588 42.636C40.1335 42.8148 40.0571 42.9825 39.9387 43.119C39.8204 43.2555 39.6652 43.3549 39.4918 43.4054C34.4254 44.8281 29.149 45.3528 23.9016 44.9557C17.4248 44.4246 11.119 42.6063 5.35378 39.6072C5.11543 39.4799 4.84948 39.4129 4.57924 39.4122C4.31671 39.411 4.05821 39.4767 3.82813 39.6031C3.59805 39.7296 3.40398 39.9125 3.26426 40.1348C3.1488 40.3189 3.07235 40.5247 3.03965 40.7396C3.00694 40.9544 3.01866 41.1736 3.0741 41.3838C3.12512 41.5836 3.21726 41.7706 3.34462 41.9328C3.47199 42.095 3.63179 42.2289 3.81381 42.3258C9.9466 45.633 16.7128 47.5977 23.6631 48.0895C34.6212 48.628 43.6512 46.47 50.4957 41.6607C51.7491 40.826 52.7995 39.7212 53.5698 38.4272C54.34 37.1333 54.8106 35.6832 54.9468 34.1835C54.9688 33.9145 54.9796 33.6458 54.9792 33.3772C54.9763 30.7482 53.9307 28.2278 52.0718 26.3689C50.2128 24.5099 47.6924 23.4643 45.0635 23.4613H45.0635ZM48.8605 38.9855C47.7428 39.7511 46.4182 40.1576 45.0635 40.1507C43.4358 40.1525 41.8616 39.5697 40.6273 38.5086C39.3931 37.4474 38.5809 35.9783 38.3386 34.3688C38.0963 32.7592 38.44 31.1161 39.3071 29.7386C40.1742 28.3611 41.5071 27.3407 43.0632 26.8632C44.6193 26.3857 46.2951 26.4828 47.7856 27.1368C49.2762 27.7908 50.4823 28.9583 51.1846 30.4267C51.8868 31.8951 52.0385 33.5669 51.6119 35.1377C51.1854 36.7085 50.209 38.0739 48.8605 38.9855Z" fill="#252525"/>
</svg>
