<svg width="58" height="58" viewBox="0 0 58 58" fill="none" xmlns="http://www.w3.org/2000/svg">
<path d="M25.2686 6.15201C25.5266 6.15196 25.7846 6.16502 26.0413 6.19114C27.9826 6.44485 29.7634 7.40196 31.0461 8.88106C32.3288 10.3602 33.0243 12.2584 33.0007 14.2161L33.0117 41.6003C33.0322 43.1609 32.7853 44.7135 32.2818 46.1908C31.6812 47.5053 30.822 48.6853 29.7556 49.6607C28.6891 50.636 27.4371 51.3865 26.0743 51.8676C25.7378 51.9598 25.4398 52.1578 25.2245 52.4323C25.0091 52.7069 24.8879 53.0435 24.8785 53.3923C24.8781 53.6382 24.9349 53.8809 25.0447 54.101C25.1544 54.3211 25.314 54.5126 25.5107 54.6602C25.701 54.8062 25.9228 54.9058 26.1584 54.9511C26.394 54.9964 26.6369 54.9862 26.8678 54.9212C29.9876 53.9947 32.6581 51.9539 34.3714 49.1869C34.4357 49.0634 34.5267 48.9558 34.6378 48.8718C34.7489 48.7879 34.8772 48.7297 35.0135 48.7014C35.1499 48.6731 35.2908 48.6755 35.4261 48.7084C35.5613 48.7413 35.6876 48.8039 35.7958 48.8916C37.4918 50.2393 39.5985 50.9652 41.7648 50.9481C46.5968 50.9481 50.5289 47.5338 50.5289 43.3364C50.5289 39.1457 46.5809 35.7363 41.7269 35.7363C40.2587 35.7269 38.8083 36.0572 37.4891 36.7016C37.346 36.7732 37.1869 36.807 37.027 36.7998C36.8671 36.7926 36.7117 36.7447 36.5756 36.6605C36.4395 36.5763 36.3271 36.4587 36.2493 36.3189C36.1714 36.1791 36.1306 36.0217 36.1307 35.8616V14.3249C36.1713 11.5376 35.1679 8.83582 33.3177 6.75073C31.4674 4.66563 28.9042 3.348 26.1318 3.05682C24.322 2.91139 22.5048 3.22269 20.8466 3.96215C19.1885 4.7016 17.7425 5.84556 16.6414 7.28909C16.5501 7.39725 16.4362 7.48418 16.3078 7.54381C16.1794 7.60344 16.0396 7.63434 15.898 7.63434C15.7564 7.63434 15.6166 7.60344 15.4882 7.54381C15.3598 7.48418 15.246 7.39725 15.1546 7.28909C13.7047 5.40929 11.6867 4.04778 9.40077 3.40711C9.17356 3.34296 8.93449 3.33282 8.70266 3.37751C8.47082 3.4222 8.25265 3.52047 8.06556 3.66449C7.88029 3.80437 7.73014 3.98547 7.62701 4.19345C7.52387 4.40143 7.47058 4.63056 7.47135 4.86271C7.46626 5.22336 7.58157 5.57541 7.79902 5.86318C8.01648 6.15094 8.32368 6.35798 8.67201 6.45156C10.286 6.92139 11.7046 7.90086 12.716 9.24361C13.7273 10.5864 14.2769 12.2203 14.2828 13.9013V36.6882C14.284 37.1158 14.4547 37.5254 14.7575 37.8274C15.0602 38.1293 15.4704 38.2989 15.898 38.2989C16.3256 38.2989 16.7357 38.1293 17.0385 37.8274C17.3413 37.5254 17.512 37.1158 17.5131 36.6882V13.9013C17.5141 11.8453 18.3316 9.87383 19.786 8.42058C21.2404 6.96734 23.2125 6.15132 25.2685 6.15201H25.2686ZM41.7648 47.8181C38.658 47.8181 36.1308 45.8075 36.1308 43.3364C36.1679 42.6438 36.3731 41.9707 36.7286 41.3752C37.0842 40.7797 37.5794 40.2797 38.1714 39.9185C39.2244 39.2193 40.4631 38.8528 41.7269 38.8664C44.8191 38.8664 47.3989 40.9131 47.3989 43.3364C47.3989 45.8074 44.8716 47.8181 41.7648 47.8181Z" fill="#252525"/>
</svg>
