<svg width="58" height="58" viewBox="0 0 58 58" fill="none" xmlns="http://www.w3.org/2000/svg">
<path d="M32.2231 6.14863C32.6492 6.14887 33.0749 6.17336 33.4982 6.22199C35.0294 6.39964 36.5046 6.90332 37.8247 7.69912C39.1447 8.49492 40.2789 9.56435 41.1508 10.8354C42.0228 12.1064 42.6122 13.5496 42.8795 15.0676C43.1467 16.5856 43.0856 18.1433 42.7001 19.6357L34.3895 43.1853C33.6856 45.1419 33.6899 47.2834 34.4017 49.2372C35.1135 51.191 36.4877 52.8334 38.2853 53.8787C39.4362 54.5039 40.7089 54.8725 42.0157 54.9592C43.3226 55.0458 44.6328 54.8485 45.8562 54.3807C47.0795 53.9128 48.1871 53.1857 49.1027 52.2492C50.0184 51.3126 50.7204 50.1889 51.1605 48.9553C51.245 48.7253 51.2718 48.4781 51.2385 48.2353C51.2053 47.9925 51.113 47.7616 50.9697 47.5628C50.8149 47.3405 50.6088 47.1589 50.3688 47.0333C50.1288 46.9077 49.8621 46.8419 49.5913 46.8414C49.2807 46.8542 48.9819 46.9637 48.7366 47.1547C48.4913 47.3456 48.3118 47.6084 48.2232 47.9063C47.8046 49.0581 47.0428 50.0537 46.0405 50.7588C45.0382 51.4639 43.8437 51.8445 42.6182 51.8492C41.6269 51.8536 40.6506 51.608 39.7793 51.1352C38.6281 50.4457 37.7548 49.3748 37.311 48.1085C36.8672 46.8421 36.881 45.4603 37.35 44.2031C45.668 20.6265 45.668 20.6265 45.6777 20.6027C46.2219 18.7848 46.3432 16.8666 46.0323 14.9947C45.5388 11.5069 43.7413 8.33598 41.0022 6.12116C38.2631 3.90634 34.7862 2.81237 31.2724 3.0598C27.7586 3.30723 24.4693 4.87766 22.0677 7.45447C19.666 10.0313 18.3306 13.4228 18.3307 16.9453C18.3298 18.1359 18.4835 19.3215 18.788 20.4724L20.0564 24.1103C20.1121 24.2702 20.1234 24.4421 20.0893 24.6079C20.0552 24.7737 19.9769 24.9272 19.8627 25.0522C19.7485 25.1772 19.6027 25.2689 19.4406 25.3178C19.2785 25.3667 19.1063 25.3708 18.942 25.3298C18.1971 25.1468 17.4326 25.0555 16.6655 25.0578C15.3427 25.0598 14.0336 25.3261 12.815 25.8409C11.5964 26.3557 10.493 27.1088 9.56937 28.0558C8.64578 29.0029 7.92066 30.1249 7.43657 31.356C6.95247 32.5871 6.71916 33.9025 6.75031 35.225C6.77324 35.9138 6.86499 36.5986 7.02418 37.2692C7.377 38.6485 8.01968 39.9368 8.90942 41.0484C9.79915 42.1599 10.9155 43.069 12.1841 43.7153C13.4044 44.3635 14.7487 44.7443 16.1276 44.8324C17.5065 44.9206 18.8883 44.7139 20.1811 44.2263C22.5634 43.2295 24.4817 41.3703 25.5524 39.0203C26.6232 36.6704 26.7676 34.0029 25.9567 31.5511L21.8133 19.6577C21.5804 18.7723 21.4619 17.8608 21.4606 16.9454C21.4639 15.4263 21.7865 13.9249 22.4074 12.5385C23.0283 11.1521 23.9337 9.91165 25.0648 8.89764C27.0268 7.12427 29.5784 6.14436 32.2231 6.14863ZM16.6656 41.7463C15.3242 41.7475 14.0127 41.3508 12.8969 40.6063C11.7811 39.8619 10.9112 38.8032 10.3974 37.5642C9.8835 36.3251 9.74873 34.9616 10.0101 33.6459C10.2715 32.3303 10.9173 31.1218 11.8658 30.1733C12.8142 29.2249 14.0228 28.5791 15.3384 28.3177C16.654 28.0563 18.0176 28.1911 19.2566 28.7049C20.4956 29.2188 21.5543 30.0887 22.2988 31.2045C23.0432 32.3202 23.44 33.6318 23.4387 34.9731C23.4352 36.7684 22.7204 38.4891 21.451 39.7586C20.1815 41.028 18.4608 41.7427 16.6656 41.7463Z" fill="#252525"/>
</svg>
