<svg width="58" height="58" viewBox="0 0 58 58" fill="none" xmlns="http://www.w3.org/2000/svg">
<path d="M54.9793 47.4657C54.9789 47.8806 54.8139 48.2785 54.5205 48.5719C54.2271 48.8653 53.8292 49.0303 53.4143 49.0307H4.58595C4.38006 49.0313 4.17609 48.9912 3.98572 48.9128C3.79534 48.8344 3.6223 48.7192 3.47652 48.5738C3.33073 48.4285 3.21507 48.2558 3.13615 48.0656C3.05723 47.8754 3.0166 47.6716 3.0166 47.4657C3.0166 47.2598 3.05723 47.0559 3.13615 46.8658C3.21507 46.6756 3.33073 46.5029 3.47652 46.3575C3.6223 46.2122 3.79534 46.097 3.98572 46.0186C4.17609 45.9402 4.38006 45.9001 4.58595 45.9007H53.4143C53.8292 45.9011 54.2271 46.0661 54.5205 46.3595C54.8139 46.6529 54.9789 47.0507 54.9793 47.4657ZM4.58595 39.0147H21.4881C21.9032 39.0147 22.3013 38.8498 22.5948 38.5563C22.8883 38.2628 23.0532 37.8647 23.0532 37.4496C23.0532 37.0346 22.8883 36.6365 22.5948 36.343C22.3013 36.0495 21.9032 35.8846 21.4881 35.8846H19.7605C19.6354 35.8846 19.5116 35.8597 19.3963 35.8112C19.281 35.7627 19.1766 35.6916 19.0892 35.6022C17.1869 33.6524 15.9019 31.1848 15.3952 28.5083C14.8884 25.8317 15.1824 23.0652 16.2404 20.5549C17.2983 18.0447 19.0732 15.9022 21.3428 14.3958C23.6125 12.8894 26.276 12.0859 29.0001 12.0859C31.7242 12.0859 34.3878 12.8894 36.6574 14.3958C38.9271 15.9022 40.7019 18.0447 41.7599 20.5549C42.8178 23.0652 43.1118 25.8317 42.6051 28.5083C42.0984 31.1848 40.8134 33.6524 38.9111 35.6022C38.8236 35.6916 38.7192 35.7627 38.6039 35.8112C38.4887 35.8597 38.3648 35.8846 38.2398 35.8846H36.5122C36.0971 35.8846 35.699 36.0495 35.4055 36.343C35.112 36.6365 34.9471 37.0346 34.9471 37.4496C34.9471 37.8647 35.112 38.2628 35.4055 38.5563C35.699 38.8498 36.0971 39.0147 36.5122 39.0147H53.4143C53.6304 39.0151 53.8443 38.9706 54.0423 38.8842C54.2404 38.7978 54.4184 38.6713 54.5651 38.5126C54.7118 38.354 54.8241 38.1666 54.8947 37.9624C54.9654 37.7582 54.9929 37.5415 54.9756 37.3261C54.9251 36.9215 54.7262 36.5501 54.4174 36.2837C54.1086 36.0174 53.712 35.8752 53.3043 35.8846H44.4876C44.3223 35.8845 44.16 35.8408 44.017 35.7579C43.874 35.675 43.7554 35.5559 43.6732 35.4125C43.591 35.2692 43.548 35.1066 43.5487 34.9414C43.5494 34.7761 43.5936 34.6139 43.677 34.4712C45.1973 31.8662 45.9915 28.9013 45.9768 25.8851C45.9193 21.556 44.2269 17.4088 41.2393 14.2753C38.2516 11.1419 34.1897 9.25396 29.8682 8.99033C26.8152 8.83632 23.7771 9.50896 21.0743 10.9373C18.3716 12.3657 16.1043 14.4968 14.5116 17.1061C12.9188 19.7153 12.0596 22.706 12.0245 25.7628C11.9895 28.8195 12.7798 31.8291 14.3123 34.4743C14.3953 34.6169 14.4392 34.779 14.4396 34.944C14.44 35.1091 14.3968 35.2713 14.3145 35.4144C14.2321 35.5574 14.1135 35.6762 13.9706 35.7588C13.8277 35.8413 13.6655 35.8847 13.5004 35.8846H4.58595C4.17226 35.8891 3.77679 36.0554 3.48426 36.348C3.19173 36.6405 3.02542 37.036 3.02095 37.4497C3.02134 37.8646 3.18635 38.2625 3.47976 38.5559C3.77317 38.8493 4.17101 39.0143 4.58595 39.0147Z" fill="#252525"/>
</svg>
