<svg width="58" height="58" viewBox="0 0 58 58" fill="none" xmlns="http://www.w3.org/2000/svg">
<path d="M45.227 54.6587H45.2264C45.0548 54.7886 44.8584 54.882 44.6494 54.9331C44.4404 54.9843 44.2231 54.9921 44.0109 54.9562C43.7987 54.9202 43.5962 54.8412 43.4157 54.724C43.2352 54.6068 43.0806 54.4539 42.9614 54.2747C38.3951 47.4957 35.7433 39.6098 35.2856 31.4491C35.2715 31.21 35.1667 30.9854 34.9925 30.821C34.8183 30.6567 34.5879 30.5652 34.3484 30.5651H23.6515C23.412 30.5652 23.1816 30.6567 23.0074 30.8211C22.8332 30.9854 22.7283 31.21 22.7143 31.4491C22.2566 39.6098 19.6048 47.4957 15.0385 54.2747C14.9261 54.4468 14.7808 54.5951 14.611 54.711C14.4413 54.827 14.2503 54.9083 14.0491 54.9505C13.8479 54.9927 13.6403 54.9948 13.4383 54.9567C13.2363 54.9187 13.0437 54.8412 12.8716 54.7287C12.6995 54.6162 12.5513 54.471 12.4353 54.3012C12.3194 54.1314 12.238 53.9405 12.1959 53.7393C12.1537 53.5381 12.1516 53.3305 12.1897 53.1285C12.2277 52.9264 12.3052 52.7339 12.4177 52.5618C16.6248 46.3233 19.091 39.0751 19.5616 31.5652C19.57 31.437 19.5519 31.3085 19.5086 31.1876C19.4652 31.0666 19.3976 30.9559 19.3097 30.8621C19.2219 30.7684 19.1158 30.6937 18.9979 30.6426C18.88 30.5915 18.7529 30.5651 18.6245 30.5651H14.7769C14.3618 30.5651 13.9637 30.4002 13.6702 30.1067C13.3768 29.8132 13.2119 29.4152 13.2119 29.0001C13.2119 28.5851 13.3768 28.187 13.6702 27.8935C13.9637 27.6 14.3618 27.4351 14.7769 27.4351H18.6618C18.7888 27.435 18.9145 27.4092 19.0312 27.3592C19.1479 27.3092 19.2533 27.236 19.341 27.1442C19.4286 27.0523 19.4967 26.9436 19.5412 26.8246C19.5856 26.7057 19.6055 26.579 19.5996 26.4521C19.2822 18.9785 17.0051 11.7198 12.9967 5.40414C12.7812 5.05109 12.7143 4.62713 12.8105 4.22487C12.9066 3.82262 13.1581 3.47478 13.5099 3.25736C13.8618 3.03993 14.2853 2.97059 14.6881 3.06448C15.0909 3.15838 15.4402 3.40788 15.6596 3.75846C20.0006 10.5887 22.4523 18.4482 22.7645 26.5352C22.7748 26.7772 22.8781 27.0059 23.0529 27.1736C23.2278 27.3412 23.4606 27.4349 23.7028 27.4351H34.2971C34.5393 27.4349 34.7721 27.3412 34.947 27.1736C35.1218 27.0059 35.2252 26.7772 35.2355 26.5352C35.5476 18.4482 37.9993 10.5887 42.3403 3.75845C42.4482 3.58336 42.5896 3.43127 42.7564 3.31086C42.9231 3.19045 43.112 3.1041 43.3122 3.05672C43.5123 3.00935 43.7199 3.0019 43.9229 3.03478C44.1259 3.06767 44.3205 3.14026 44.4955 3.24839C44.6704 3.35652 44.8224 3.49808 44.9426 3.66497C45.0628 3.83186 45.149 4.02081 45.1962 4.22102C45.2433 4.42123 45.2505 4.62877 45.2174 4.83178C45.1843 5.03479 45.1115 5.22928 45.0032 5.40413C40.9948 11.7198 38.7177 18.9785 38.4003 26.4521C38.3944 26.5789 38.4143 26.7057 38.4587 26.8246C38.5032 26.9436 38.5713 27.0523 38.659 27.1441C38.7466 27.236 38.852 27.3092 38.9687 27.3592C39.0855 27.4092 39.2111 27.435 39.3381 27.4351H43.223C43.6381 27.4351 44.0361 27.6 44.3296 27.8935C44.6231 28.187 44.788 28.585 44.788 29.0001C44.788 29.4152 44.6231 29.8132 44.3296 30.1067C44.0361 30.4002 43.6381 30.5651 43.223 30.5651H39.3754C39.2469 30.5651 39.1198 30.5915 39.0019 30.6426C38.8841 30.6937 38.7779 30.7684 38.6901 30.8621C38.6023 30.9559 38.5346 31.0666 38.4913 31.1876C38.4479 31.3085 38.4299 31.437 38.4382 31.5652C38.9089 39.0751 41.3751 46.3232 45.5822 52.5618C45.8005 52.891 45.8853 53.291 45.8193 53.6805C45.7534 54.07 45.5416 54.4197 45.227 54.6587Z" fill="#252525"/>
</svg>
