<svg width="58" height="58" viewBox="0 0 58 58" fill="none" xmlns="http://www.w3.org/2000/svg">
<path d="M15.821 24.7739C15.5113 24.7738 15.2086 24.8656 14.9511 25.0376C14.6936 25.2096 14.4929 25.4541 14.3744 25.7402C14.256 26.0263 14.225 26.3411 14.2855 26.6448C14.3459 26.9485 14.4951 27.2274 14.7142 27.4463L20.8564 33.5885C20.9436 33.6757 21.0128 33.7792 21.0601 33.8932C21.1073 34.0071 21.1316 34.1293 21.1316 34.2526C21.1316 34.376 21.1073 34.4981 21.0601 34.6121C21.0128 34.726 20.9436 34.8296 20.8564 34.9168L3.55487 52.2219C3.27095 52.4853 3.08858 52.84 3.03962 53.2242C2.99067 53.6084 3.07823 53.9976 3.28702 54.3237C3.4188 54.5102 3.58969 54.6656 3.78775 54.7791C3.98581 54.8927 4.20627 54.9616 4.43374 54.9811C4.6612 55.0006 4.89018 54.9702 5.10469 54.8921C5.31919 54.8139 5.51405 54.6899 5.67565 54.5286L23.0713 37.1311C23.2508 36.9615 23.4885 36.8669 23.7354 36.8669C23.9824 36.8669 24.2201 36.9615 24.3996 37.1311L30.5442 43.2764C30.8379 43.57 31.2361 43.7349 31.6513 43.7348C32.0666 43.7348 32.4648 43.5698 32.7583 43.2761C33.0519 42.9825 33.2168 42.5843 33.2167 42.169C33.2167 41.7538 33.0517 41.3556 32.758 41.0621L26.6133 34.9168C26.5261 34.8296 26.4569 34.726 26.4097 34.6121C26.3625 34.4981 26.3382 34.376 26.3382 34.2526C26.3382 34.1293 26.3625 34.0071 26.4097 33.8932C26.4569 33.7792 26.5261 33.6757 26.6133 33.5885L50.2344 9.96316C50.3657 9.83181 50.533 9.74234 50.7152 9.70606C50.8973 9.66978 51.0861 9.68832 51.2577 9.75933C51.4294 9.83035 51.5761 9.95065 51.6793 10.105C51.7826 10.2594 51.8377 10.4409 51.8378 10.6267L51.8415 18.8494C51.8273 19.2371 51.9495 19.6175 52.1868 19.9245C52.4242 20.2314 52.7616 20.4454 53.1404 20.5293C53.366 20.5684 53.5973 20.5577 53.8183 20.498C54.0393 20.4382 54.2445 20.3309 54.4197 20.1835C54.5948 20.0361 54.7356 19.8522 54.8321 19.6447C54.9287 19.4371 54.9787 19.211 54.9787 18.9821L54.9726 3.24184C54.9726 3.18106 54.9486 3.12273 54.9057 3.07964C54.8628 3.03654 54.8046 3.01218 54.7439 3.01189H39.1705C38.7832 2.99744 38.4031 3.11935 38.0965 3.35637C37.7899 3.5934 37.5761 3.93051 37.4925 4.30896C37.4533 4.53425 37.4638 4.7654 37.5233 4.98619C37.5829 5.20699 37.69 5.41209 37.8372 5.58711C37.9843 5.76214 38.168 5.90286 38.3753 5.99941C38.5826 6.09595 38.8085 6.14599 39.0372 6.14601H47.3553C47.5411 6.14582 47.7229 6.2008 47.8775 6.30398C48.0321 6.40717 48.1525 6.5539 48.2236 6.72562C48.2948 6.89733 48.3133 7.08628 48.277 7.26855C48.2406 7.45081 48.151 7.61819 48.0194 7.74947L24.3984 31.3742C24.2188 31.5438 23.9812 31.6383 23.7342 31.6383C23.4872 31.6383 23.2496 31.5438 23.0701 31.3742L16.9279 25.2319C16.7828 25.0862 16.6103 24.9707 16.4203 24.8921C16.2303 24.8135 16.0266 24.7733 15.821 24.7739Z" fill="#252525"/>
</svg>
