<svg width="58" height="58" viewBox="0 0 58 58" fill="none" xmlns="http://www.w3.org/2000/svg">
<path d="M25.3615 13.8378C26.3901 13.8353 27.3776 14.2414 28.1068 14.9667C28.8361 15.6921 29.2475 16.6774 29.2505 17.7059V36.5469C29.2532 38.9674 30.2159 41.288 31.9275 42.9995C33.639 44.7111 35.9596 45.6738 38.3801 45.6765H46.8033C46.9888 45.6766 47.1701 45.7317 47.3244 45.8348C47.4786 45.9379 47.5988 46.0844 47.6698 46.2558C47.7408 46.4272 47.7595 46.6157 47.7233 46.7977C47.6872 46.9797 47.598 47.1469 47.4669 47.2781L42.4499 52.3013C42.1569 52.5956 41.9925 52.9941 41.9927 53.4094C41.9929 53.8248 42.1578 54.2231 42.4511 54.5171C42.7499 54.8018 43.1469 54.9607 43.5597 54.9607C43.9724 54.9607 44.3694 54.8018 44.6682 54.5171L54.9014 44.274C54.9442 44.2311 54.9683 44.173 54.9683 44.1124C54.9683 44.0518 54.9442 43.9936 54.9014 43.9508L44.689 33.7378C44.3953 33.4441 43.997 33.2791 43.5817 33.2791C43.1664 33.2791 42.7681 33.4441 42.4744 33.7378C42.1807 34.0314 42.0157 34.4297 42.0157 34.845C42.0157 35.2604 42.1807 35.6587 42.4744 35.9523L47.467 40.9455C47.5984 41.0767 47.688 41.2439 47.7243 41.426C47.7606 41.6082 47.7421 41.797 47.671 41.9685C47.5999 42.1401 47.4795 42.2867 47.3251 42.3898C47.1706 42.4929 46.989 42.5479 46.8033 42.5477H38.3361C36.7567 42.546 35.2425 41.9178 34.1257 40.8009C33.0089 39.684 32.3808 38.1697 32.3793 36.5902V18.0317C32.3724 17.0443 32.1709 16.068 31.7866 15.1585C31.4022 14.249 30.8423 13.4241 30.139 12.7311C28.8813 11.4524 27.1673 10.7256 25.3738 10.7103C25.3493 10.7103 25.3249 10.7103 25.3017 10.7109C23.5384 10.7243 21.8476 11.4139 20.578 12.6376C20.4031 12.8064 20.1696 12.9007 19.9266 12.9007C19.6836 12.9007 19.45 12.8064 19.2752 12.6376C18.301 11.7206 17.0858 11.1001 15.7718 10.8486C14.4578 10.5971 13.0993 10.725 11.8554 11.2174C11.7191 11.2727 11.5717 11.295 11.4251 11.2828C11.2785 11.2705 11.1369 11.224 11.0116 11.1469C10.8864 11.0698 10.781 10.9644 10.704 10.839C10.627 10.7137 10.5806 10.5721 10.5684 10.4255C10.4306 8.8119 9.83864 7.27035 8.861 5.97929C7.88335 4.68823 6.56003 3.70046 5.04424 3.13035C4.8095 3.04854 4.55823 3.02571 4.31259 3.06387C4.06694 3.10203 3.83444 3.20001 3.63558 3.34919C3.43672 3.49837 3.2776 3.69416 3.17222 3.91931C3.06685 4.14447 3.01847 4.39209 3.03133 4.64035C3.04188 4.97042 3.15117 5.28974 3.34506 5.55706C3.53896 5.82438 3.80856 6.02742 4.11903 6.13995C5.11047 6.54135 5.95886 7.23068 6.55469 8.11897C7.15052 9.00726 7.46644 10.0537 7.46169 11.1233V39.8101C7.45231 40.2178 7.59466 40.6144 7.86112 40.9231C8.12758 41.2318 8.49918 41.4305 8.90385 41.4808C9.11905 41.4977 9.33542 41.47 9.53936 41.3992C9.74329 41.3284 9.93036 41.2162 10.0888 41.0696C10.2472 40.923 10.3736 40.7452 10.4599 40.5473C10.5463 40.3495 10.5907 40.1359 10.5904 39.9201V17.877C10.5762 16.8936 10.9254 15.9396 11.5711 15.1977C12.2168 14.4558 13.1135 13.9783 14.0895 13.8567C14.626 13.8028 15.1678 13.8627 15.6795 14.0325C16.1913 14.2022 16.6615 14.478 17.0594 14.8418C17.4576 15.2051 17.7758 15.6475 17.9936 16.1406C18.2114 16.6337 18.324 17.1669 18.3243 17.7059V39.9201C18.3308 40.3373 18.5012 40.7353 18.7985 41.0281C19.0959 41.3208 19.4965 41.4849 19.9138 41.4849C20.3311 41.4849 20.7316 41.3208 21.029 41.0281C21.3264 40.7353 21.4967 40.3373 21.5032 39.9201V17.8813C21.492 16.9032 21.8382 15.9546 22.4768 15.2137C23.1155 14.4728 24.0026 13.9904 24.9717 13.8573C25.1012 13.8441 25.2313 13.8376 25.3615 13.8378Z" fill="#252525"/>
</svg>
