<svg width="58" height="58" viewBox="0 0 58 58" fill="none" xmlns="http://www.w3.org/2000/svg">
<path d="M11.1762 3.02181C10.9518 3.01952 10.7297 3.06614 10.5252 3.15841C10.3207 3.25068 10.1388 3.38639 9.99202 3.55611C9.84208 3.73036 9.73126 3.93474 9.66703 4.15547C9.60281 4.3762 9.58668 4.60813 9.61972 4.83563C10.1169 8.3854 11.583 11.7294 13.8571 14.5001C16.1311 17.2708 19.125 19.3609 22.5097 20.5408C22.6894 20.604 22.8456 20.7203 22.9577 20.8744C23.0697 21.0284 23.1322 21.2129 23.1369 21.4034C23.1416 21.5938 23.0883 21.7812 22.984 21.9406C22.8797 22.1 22.7294 22.2239 22.5531 22.2959C19.4218 23.5681 16.744 25.7502 14.866 28.5604C12.9881 31.3705 11.9962 34.6793 12.0186 38.0591C12.0789 42.3888 13.7728 46.5358 16.7609 49.6697C19.749 52.8035 23.8108 54.6927 28.1327 54.9589C32.1345 55.1626 36.0794 53.9442 39.2695 51.5194C42.4596 49.0946 44.6891 45.6197 45.5638 41.7093C46.4385 37.7989 45.9019 33.7052 44.0489 30.1524C42.1959 26.5995 39.146 23.8166 35.4388 22.296C35.2624 22.224 35.1121 22.1 35.0078 21.9406C34.9036 21.7812 34.8502 21.5939 34.8549 21.4034C34.8597 21.213 34.9222 21.0285 35.0342 20.8744C35.1462 20.7204 35.3025 20.604 35.4822 20.5408C38.8638 19.3334 41.852 17.2263 44.125 14.4464C46.398 11.6666 47.8695 8.31945 48.3813 4.76533C48.4131 4.54435 48.3971 4.31914 48.3344 4.10486C48.2718 3.89059 48.1639 3.69223 48.0182 3.52316C47.8816 3.36467 47.7123 3.23775 47.5219 3.15119C47.3315 3.06464 47.1245 3.02051 46.9153 3.02187C46.5334 3.00101 46.157 3.12023 45.8567 3.35716C45.5564 3.59409 45.3529 3.93244 45.2843 4.30874C44.7459 8.24653 42.7992 11.856 39.8045 14.469C36.8098 17.082 32.9698 18.5216 28.9954 18.5215C25.021 18.5213 21.1812 17.0814 18.1867 14.4682C15.1922 11.8549 13.2457 8.24536 12.7076 4.30754C12.6724 3.9602 12.5113 3.63774 12.2548 3.40092C11.9983 3.1641 11.664 3.02928 11.315 3.02187L11.1762 3.02181ZM28.9959 51.8502C26.2572 51.8502 23.58 51.0381 21.3028 49.5165C19.0256 47.9949 17.2507 45.8323 16.2027 43.302C15.1546 40.7717 14.8804 37.9875 15.4147 35.3014C15.949 32.6153 17.2678 30.1479 19.2044 28.2113C21.141 26.2748 23.6083 24.9559 26.2944 24.4216C28.9806 23.8873 31.7648 24.1616 34.2951 25.2096C36.8253 26.2577 38.988 28.0325 40.5095 30.3097C42.0311 32.5869 42.8432 35.2641 42.8432 38.0029C42.8391 41.6741 41.3789 45.1939 38.7829 47.7899C36.1869 50.3858 32.6672 51.8461 28.9959 51.8502Z" fill="#252525"/>
</svg>
