<svg width="58" height="58" viewBox="0 0 58 58" fill="none" xmlns="http://www.w3.org/2000/svg">
<path d="M47.5672 51.8981L47.5586 51.8945C47.0685 51.6959 46.565 51.4703 46.0346 51.1923C45.8354 51.0952 45.7132 51.0334 45.5983 50.9643C45.4597 50.8807 45.3451 50.7626 45.2657 50.6216C45.1862 50.4805 45.1446 50.3214 45.1448 50.1595C45.1451 49.9976 45.1872 49.8386 45.267 49.6978C45.3469 49.557 45.4619 49.4393 45.6007 49.356C46.6876 48.6942 47.6063 47.7893 48.2845 46.7124C49.23 45.1668 49.7245 43.3875 49.7121 41.5756C49.7121 36.745 46.2985 32.815 42.1027 32.815C41.0244 32.8152 39.9624 33.0791 39.0094 33.5838C38.8664 33.6587 38.7064 33.6955 38.545 33.6905C38.3836 33.6855 38.2262 33.6389 38.0881 33.5553C37.95 33.4716 37.8358 33.3538 37.7565 33.2131C37.6773 33.0724 37.6357 32.9136 37.6357 32.7521V18.0218C37.6201 16.0353 36.8191 14.1358 35.4077 12.7378C34.7802 12.0963 34.0315 11.5859 33.2051 11.2362C32.3787 10.8866 31.491 10.7046 30.5936 10.701C28.818 10.7053 27.1127 11.3959 25.8344 12.6283C25.6595 12.797 25.4259 12.8912 25.1829 12.8911C24.9399 12.891 24.7064 12.7966 24.5316 12.6277C23.5571 11.7116 22.3422 11.0916 21.0285 10.8401C19.7149 10.5887 18.3569 10.7161 17.1129 11.2075C16.9766 11.263 16.8291 11.2856 16.6824 11.2735C16.5358 11.2614 16.394 11.215 16.2686 11.1379C16.1431 11.0609 16.0376 10.9554 15.9605 10.83C15.8835 10.7046 15.837 10.5628 15.8249 10.4162C15.6871 8.80246 15.0951 7.26078 14.1175 5.9696C13.1398 4.67842 11.8164 3.69056 10.3005 3.12038C10.0657 3.03897 9.81454 3.01645 9.56901 3.05482C9.32347 3.09318 9.09112 3.19126 8.89235 3.34042C8.69358 3.48959 8.53449 3.68529 8.42904 3.91032C8.32359 4.13535 8.27502 4.38284 8.28759 4.63103C8.29814 4.9611 8.40743 5.28043 8.60132 5.54776C8.79522 5.81508 9.06482 6.01813 9.37529 6.13067C10.3668 6.5318 11.2153 7.22097 11.8111 8.10919C12.407 8.99741 12.7228 10.0439 12.7179 11.1134V39.9111C12.7183 40.3258 12.8833 40.7235 13.1766 41.0168C13.4699 41.3101 13.8675 41.4751 14.2823 41.4755C14.4876 41.4779 14.6913 41.4389 14.8811 41.3608C15.071 41.2826 15.2431 41.167 15.3872 41.0208C15.5336 40.8756 15.6496 40.7027 15.7285 40.5121C15.8074 40.3216 15.8476 40.1173 15.8467 39.9111V17.8593C15.8319 16.875 16.1821 15.9201 16.8299 15.1789C17.4776 14.4377 18.377 13.9628 19.3544 13.8457C19.8901 13.7915 20.4311 13.8516 20.9418 14.022C21.4525 14.1924 21.9212 14.4693 22.317 14.8344C22.7147 15.1977 23.0324 15.6398 23.25 16.1326C23.4676 16.6254 23.5802 17.158 23.5807 17.6967V39.9111C23.5872 40.3283 23.7575 40.7263 24.0549 41.019C24.3523 41.3118 24.7528 41.4759 25.1701 41.4759C25.5874 41.4759 25.988 41.3118 26.2854 41.019C26.5827 40.7263 26.7531 40.3283 26.7596 39.9111V17.8721C26.7482 16.8941 27.0942 15.9455 27.7326 15.2045C28.371 14.4635 29.2579 13.9809 30.2269 13.8475C30.7664 13.7917 31.3116 13.8497 31.8273 14.0176C32.343 14.1856 32.8178 14.4597 33.221 14.8224C33.6243 15.1851 33.9471 15.6282 34.1686 16.1233C34.39 16.6184 34.5053 17.1544 34.5069 17.6967V41.6129C34.4884 43.4007 34.9798 45.1567 35.9235 46.6752C35.9728 46.7358 36.0154 46.8016 36.0505 46.8714C36.706 47.909 37.5004 48.8519 38.4118 49.6738C38.5217 49.7761 38.6055 49.9033 38.6561 50.0446C38.7067 50.186 38.7227 50.3374 38.7027 50.4862C38.6827 50.635 38.6273 50.7768 38.5412 50.8998C38.455 51.0228 38.3407 51.1233 38.2077 51.1929C37.6645 51.4772 37.1054 51.7303 36.5333 51.9507C36.2212 52.0682 35.9565 52.2851 35.7798 52.5679C35.6031 52.8507 35.5243 53.1837 35.5556 53.5157C35.5727 53.7609 35.6472 53.9986 35.7731 54.2096C35.899 54.4206 36.0727 54.5991 36.2804 54.7306C36.4745 54.8571 36.6957 54.9362 36.926 54.9614C37.1564 54.9867 37.3894 54.9574 37.6064 54.876C39.0055 54.3335 40.3519 53.6637 41.6286 52.8753C41.7762 52.7849 41.9461 52.7374 42.1192 52.738C42.2923 52.7387 42.4618 52.7875 42.6088 52.879C43.8833 53.6726 45.2315 54.3412 46.6346 54.8754C46.8682 54.9529 47.1167 54.9741 47.36 54.9372C47.6033 54.9003 47.8344 54.8064 48.0345 54.6631C48.2346 54.5199 48.398 54.3314 48.5113 54.113C48.6246 53.8946 48.6847 53.6524 48.6867 53.4064C48.6703 53.0724 48.5551 52.7508 48.3559 52.4823C48.1566 52.2138 47.8821 52.0105 47.5672 51.8981ZM42.1028 47.2073C41.4681 47.1864 40.8469 47.0183 40.2882 46.7163C39.7296 46.4143 39.2487 45.9866 38.8836 45.467C38.8084 45.3738 38.7425 45.2735 38.6868 45.1675C37.9882 44.1147 37.622 42.8763 37.6358 41.6128C37.6358 38.5225 39.6817 35.9438 42.1028 35.9438C44.5728 35.9438 46.5833 38.47 46.5833 41.5755C46.5833 44.681 44.5728 47.2074 42.1028 47.2074V47.2073Z" fill="#252525"/>
</svg>
